<svg 
width="120" 
height="120"
viewBox="0 0 120 120"
xmlns="http://www.w3.org/2000/svg"
xmlns:svg="http://www.w3.org/2000/svg">
  <path clip-rule="evenodd" d="m25.53,13.58c-6.73,0 -11.72,5.89 -11.49,12.28c0.21,6.14 -0.07,14.1 -2.07,20.58c-2.01,6.51 -5.4,10.62 -10.95,11.15l0,5.98c5.55,0.53 8.94,4.65 10.95,11.15c2,6.48 2.28,14.44 2.07,20.58c-0.23,6.39 4.76,12.28 11.49,12.28l68.99,0c6.73,0 11.71,-5.89 11.49,-12.28c-0.21,-6.14 0.06,-14.1 2.07,-20.58c2.01,-6.51 5.39,-10.63 10.94,-11.15l0,-5.98c-5.55,-0.53 -8.93,-4.65 -10.94,-11.15c-2,-6.48 -2.28,-14.44 -2.07,-20.58c0.22,-6.39 -4.76,-12.28 -11.49,-12.28l-68.99,0zm29.18,38.29l0.12,-10.24c-0.13,-2.13 -2.57,-7.97 -8.3,-8l-5.9,0.1c-4.3,0.1 -7.6,4 -8.5,5.9c-0.9,1.9 -1.02,6.26 -0.52,8.86c0.5,2.6 2.04,8.46 4.82,11.64c3.1,3.5 8.93,10.7 9.5,14.5c-0.03,1.7 0,2.53 0,4c0.1,2.67 -6.1,2.33 -6.1,-0.1l-0.3,-9.26l-8.17,-0.02c0,2.56 0.09,9.12 0.19,11.69c1.67,5.99 5.08,7.39 11.98,7.69c9.2,-0.1 11.6,-5.6 11.8,-10.7c0,-3.7 -0.5,-6.8 -2,-9.5c-1.5,-2.7 -3.9,-7.3 -6.8,-10.7c-2.9,-3.4 -5.7,-9.2 -5.8,-10.9c-0.1,-1.7 -0.4,-3.5 0.8,-4.6c1.2,-1.1 3.58,-0.97 4.4,0.1c0.82,1.07 0.73,2.13 0.75,3.8l-0.07,5.74l8.1,0zm32.95,36.78l-7.98,0.08l-0.07,-1.61c-0.85,0.8 -1.65,1.71 -5.94,1.63c-6.93,-0.02 -9.75,-5.3 -9.85,-9.4c-0.2,-3.3 -0.5,-31.3 -0.35,-36c0.05,-3.2 3.85,-7.7 6.9,-8.8c2.65,-0.9 6.05,-1.4 9.7,-0.3c3.65,1.1 7.55,5.3 7.5,7.3l0,10.4l-8.1,0c0.05,-3.1 -0.05,-6.4 -0.1,-8.6c-0.15,-2 -6.05,-2.1 -6.1,0.2c0.03,0.81 -0.13,34.17 -0.1,34.8c-0.05,2.8 6.35,2.9 6.3,0.5l0.04,-9.58l-4.44,0.08l0,-5.9l12.55,0l0.05,25.2l-0.01,0z" fill="#ffff00" fill-rule="evenodd" id="logo_layer_1"/>
  <path clip-rule="evenodd" d="m9.63,69.27c1.09,1.93 1.88,3.69 2.41,5.86l19.41,-0.04l-0.03,-5.82l-21.79,0zm30.1,5.91l6.25,0.02c-0.06,-2.35 -1.53,-4.49 -2.47,-5.92l-3.97,0.01l0.19,5.89zm14.07,-5.88c0.73,1.71 1.22,3.81 1.43,5.84l8.47,-0.06l-0.07,-5.84l-9.83,0.06zm33.85,5.8l20.29,0.04c0.57,-1.85 1.34,-3.87 2.43,-5.8l-22.73,0.01l0.01,5.75zm-14.47,-0.03l6.29,0.04l0.03,-5.84l-6.31,0.01l-0.01,5.79zm-32.52,-29.29l0.06,1.18c0.4,1.79 1.06,3.31 1.92,4.88l3.99,0l0.05,-6.08l-6.02,0.02zm14.13,-0.02l-0.07,6.12l8.71,-0.04l0.01,-6.06l-8.65,-0.02zm-53.74,11.82l-0.01,5.94l38.25,0.02c-1.44,-1.79 -3.29,-3.87 -4.61,-5.96l-33.63,0zm11.07,-11.84c-0.58,1.96 -1.35,4.1 -2.45,6.1l22.77,0c-0.52,-1.85 -1.11,-4.27 -1.09,-6.14l-19.23,0.04zm61.06,17.83l45.83,-0.02l0.03,-5.96l-45.81,0.11l-0.05,5.87zm-26.74,-5.96c1.46,1.96 2.93,3.9 4.13,5.88l12.95,0.04l-0.07,-5.88l-17.01,-0.04zm41.11,-5.67l22.89,-0.04c-1.05,-1.89 -1.82,-3.83 -2.49,-6.02l-20.39,-0.11l-0.01,6.17zm-14.31,-6.13l0.03,6.1l6.23,0.02l-0.05,-6.12l-6.21,0z" fill="#ff0000" fill-rule="evenodd" id="logo_layer_2"/>
</svg>